<?xml version="1.0" encoding="UTF-8"?>
<svg width="25px" height="33px" viewBox="0 0 25 33" version="1.1" xmlns="http://www.w3.org/2000/svg" xmlns:xlink="http://www.w3.org/1999/xlink">
    <!-- Generator: Sketch 52.4 (67378) - http://www.bohemiancoding.com/sketch -->
    <title>Shape</title>
    <desc>Created with Sketch.</desc>
    <g id="User" stroke="none" stroke-width="1" fill="none" fill-rule="evenodd">
        <g id="Map---all-buses" transform="translate(-158.000000, -515.000000)" fill="#FE3029">
            <g id="Positions" transform="translate(158.000000, 246.000000)">
                <path d="M12.5,269 C5.58928571,269 0,274.1645 0,280.55 C0,289.2125 12.5,302 12.5,302 C12.5,302 25,289.2125 25,280.55 C25,274.1645 19.4107143,269 12.5,269 L12.5,269 Z M12.5,285 C10.016,285 8,283.208 8,281 C8,278.792 10.016,277 12.5,277 C14.984,277 17,278.792 17,281 C17,283.208 14.984,285 12.5,285 L12.5,285 Z" id="Shape"></path>
            </g>
        </g>
    </g>
</svg>