<?xml version="1.0" encoding="UTF-8"?>
<svg width="25px" height="33px" viewBox="0 0 25 33" version="1.1" xmlns="http://www.w3.org/2000/svg" xmlns:xlink="http://www.w3.org/1999/xlink">
    <!-- Generator: Sketch 52.4 (67378) - http://www.bohemiancoding.com/sketch -->
    <title>Shape</title>
    <desc>Created with Sketch.</desc>
    <g id="User" stroke="none" stroke-width="1" fill="none" fill-rule="evenodd">
        <g id="Map---all-buses" transform="translate(-158.000000, -246.000000)" fill="#FE3029">
            <g id="Positions" transform="translate(158.000000, 246.000000)">
                <path d="M12.5,0 C5.58928571,0 0,5.1645 0,11.55 C0,20.2125 12.5,33 12.5,33 C12.5,33 25,20.2125 25,11.55 C25,5.1645 19.4107143,0 12.5,0 L12.5,0 Z M12.5,16 C10.016,16 8,14.208 8,12 C8,9.792 10.016,8 12.5,8 C14.984,8 17,9.792 17,12 C17,14.208 14.984,16 12.5,16 L12.5,16 Z" id="Shape"></path>
            </g>
        </g>
    </g>
</svg>