<?xml version="1.0" encoding="UTF-8"?>
<svg width="19px" height="19px" viewBox="0 0 19 19" version="1.1" xmlns="http://www.w3.org/2000/svg" xmlns:xlink="http://www.w3.org/1999/xlink">
    <!-- Generator: Sketch 52.4 (67378) - http://www.bohemiancoding.com/sketch -->
    <title>Material/Icons white/search</title>
    <desc>Created with Sketch.</desc>
    <g id="User" stroke="none" stroke-width="1" fill="none" fill-rule="evenodd">
        <g id="Bus-list---favorite" transform="translate(-363.000000, -47.000000)" fill="#FFFFFF">
            <g id="Header" transform="translate(0.000000, 26.000000)">
                <g id="Material/Icons-white/search" transform="translate(354.000000, 12.000000)">
                    <path d="M22.35325,16.3425417 L21.55925,16.3425417 L21.28325,16.6165417 C22.25825,17.7535417 22.85125,19.2275417 22.85125,20.8425417 C22.85125,24.4325417 19.94125,27.3425417 16.35125,27.3425417 C12.76125,27.3425417 9.85125,24.4325417 9.85125,20.8425417 C9.85125,17.2525417 12.76125,14.3425417 16.35125,14.3425417 C17.96625,14.3425417 19.43925,14.9345417 20.57625,15.9085417 L20.85225,15.6345417 L20.85225,14.8425417 L25.85025,9.85154167 L27.34125,11.3425417 L22.35325,16.3425417 L22.35325,16.3425417 Z M16.35125,16.3425417 C13.86525,16.3425417 11.85125,18.3565417 11.85125,20.8425417 C11.85125,23.3275417 13.86525,25.3425417 16.35125,25.3425417 C18.83625,25.3425417 20.85125,23.3275417 20.85125,20.8425417 C20.85125,18.3565417 18.83625,16.3425417 16.35125,16.3425417 L16.35125,16.3425417 Z" id="Shape" transform="translate(18.596250, 18.597042) scale(1, -1) translate(-18.596250, -18.597042) "></path>
                </g>
            </g>
        </g>
    </g>
</svg>